<?xml version="1.0" encoding="UTF-8"?>
<!DOCTYPE svg PUBLIC "-//W3C//DTD SVG 1.1//EN" "http://www.w3.org/Graphics/SVG/1.1/DTD/svg11.dtd">
<!-- Creator: CorelDRAW 2019 (64 Bit) -->
<svg xmlns="http://www.w3.org/2000/svg" xml:space="preserve" width="304.8mm" height="304.8mm" version="1.1" style="shape-rendering:geometricPrecision; text-rendering:geometricPrecision; image-rendering:optimizeQuality; fill-rule:evenodd; clip-rule:evenodd"
viewBox="0 0 30480 30480"
 xmlns:xlink="http://www.w3.org/1999/xlink">
 <defs>
  <style type="text/css">
   <![CDATA[
    .fil1 {fill:none}
    .fil0 {fill:#1F1F1F}
    .fil4 {fill:#63B2EA}
    .fil2 {fill:#AEDF6A}
    .fil3 {fill:white}
   ]]>
  </style>
 </defs>
 <g id="Camada_x0020_1">
  <metadata id="CorelCorpID_0Corel-Layer"/>
  <rect class="fil0" x="0" y="-0" width="30480" height="30480" rx="4253.02" ry="4213.82"/>
  <rect class="fil1" x="19063.68" y="22077.01" width="1510.9" height="1510.9"/>
  <rect class="fil1" x="20574.58" y="22077.01" width="1510.9" height="1510.9"/>
  <rect class="fil1" x="17552.78" y="22077.01" width="1510.9" height="1510.9"/>
  <rect class="fil1" x="19063.68" y="20566.12" width="1510.9" height="1510.9"/>
  <rect class="fil1" x="22085.48" y="20566.12" width="1510.9" height="1510.9"/>
  <rect class="fil1" x="17552.78" y="20566.12" width="1510.9" height="1510.9"/>
  <rect class="fil1" x="22085.48" y="19055.23" width="1510.9" height="1510.9"/>
  <rect class="fil1" x="19063.68" y="17544.34" width="1510.9" height="1510.9"/>
  <rect class="fil1" x="20574.58" y="17544.34" width="1510.9" height="1510.9"/>
  <rect class="fil1" x="17552.78" y="17544.34" width="1510.9" height="1510.9"/>
  <rect class="fil1" x="22085.48" y="16033.45" width="1510.9" height="1510.9"/>
  <g id="_2178291081488">
   <rect class="fil2" x="22085.48" y="22077.01" width="1510.9" height="1510.9"/>
   <rect class="fil2" x="16041.89" y="22077.01" width="1510.9" height="1510.9"/>
   <rect class="fil2" x="20574.58" y="20566.12" width="1510.9" height="1510.9"/>
   <rect class="fil2" x="16041.89" y="20566.12" width="1510.9" height="1510.9"/>
   <rect class="fil2" x="19063.68" y="19055.23" width="1510.9" height="1510.9"/>
   <rect class="fil2" x="20574.58" y="19055.23" width="1510.9" height="1510.9"/>
   <rect class="fil2" x="17552.78" y="19055.23" width="1510.9" height="1510.9"/>
   <rect class="fil2" x="16041.89" y="19055.23" width="1510.9" height="1510.9"/>
   <rect class="fil2" x="22085.48" y="17544.34" width="1510.9" height="1510.9"/>
   <rect class="fil2" x="16041.89" y="17544.34" width="1510.9" height="1510.9"/>
   <rect class="fil2" x="19063.68" y="16033.45" width="1510.9" height="1510.9"/>
   <rect class="fil2" x="20574.58" y="16033.45" width="1510.9" height="1510.9"/>
   <rect class="fil2" x="17552.78" y="16033.45" width="1510.9" height="1510.9"/>
   <rect class="fil2" x="16041.89" y="16033.45" width="1510.9" height="1510.9"/>
  </g>
  <rect class="fil1" x="11416.3" y="22077.01" width="1510.9" height="1510.9"/>
  <rect class="fil1" x="6883.61" y="22077.01" width="1510.9" height="1510.9"/>
  <rect class="fil1" x="9905.4" y="20566.12" width="1510.9" height="1510.9"/>
  <rect class="fil1" x="12927.2" y="20566.12" width="1510.9" height="1510.9"/>
  <rect class="fil1" x="8394.51" y="20566.12" width="1510.9" height="1510.9"/>
  <rect class="fil1" x="9905.4" y="19055.23" width="1510.9" height="1510.9"/>
  <rect class="fil1" x="11416.3" y="19055.23" width="1510.9" height="1510.9"/>
  <rect class="fil1" x="8394.51" y="19055.23" width="1510.9" height="1510.9"/>
  <rect class="fil1" x="9905.4" y="17544.34" width="1510.9" height="1510.9"/>
  <rect class="fil1" x="11416.3" y="17544.34" width="1510.9" height="1510.9"/>
  <rect class="fil1" x="8394.51" y="17544.34" width="1510.9" height="1510.9"/>
  <rect class="fil1" x="12927.2" y="16033.45" width="1510.9" height="1510.9"/>
  <g id="_2178291111120">
   <rect class="fil3" x="9905.4" y="22077.01" width="1510.9" height="1510.9"/>
   <rect class="fil3" x="12927.2" y="22077.01" width="1510.9" height="1510.9"/>
   <rect class="fil3" x="8394.51" y="22077.01" width="1510.9" height="1510.9"/>
   <rect class="fil3" x="11416.3" y="20566.12" width="1510.9" height="1510.9"/>
   <rect class="fil3" x="6883.61" y="20566.12" width="1510.9" height="1510.9"/>
   <rect class="fil3" x="12927.2" y="19055.23" width="1510.9" height="1510.9"/>
   <rect class="fil3" x="6883.61" y="19055.23" width="1510.9" height="1510.9"/>
   <rect class="fil3" x="12927.2" y="17544.34" width="1510.9" height="1510.9"/>
   <rect class="fil3" x="6883.61" y="17544.34" width="1510.9" height="1510.9"/>
   <rect class="fil3" x="9905.4" y="16033.45" width="1510.9" height="1510.9"/>
   <rect class="fil3" x="11416.3" y="16033.45" width="1510.9" height="1510.9"/>
   <rect class="fil3" x="8394.51" y="16033.45" width="1510.9" height="1510.9"/>
  </g>
  <rect class="fil1" x="6883.61" y="16033.45" width="1510.9" height="1510.9"/>
  <rect class="fil1" x="19063.68" y="11424.77" width="1510.9" height="1510.9"/>
  <rect class="fil1" x="20574.58" y="11424.77" width="1510.9" height="1510.9"/>
  <rect class="fil1" x="22085.48" y="11424.77" width="1510.9" height="1510.9"/>
  <rect class="fil1" x="16041.89" y="11424.77" width="1510.9" height="1510.9"/>
  <rect class="fil1" x="20574.58" y="9913.88" width="1510.9" height="1510.9"/>
  <rect class="fil1" x="22085.48" y="9913.88" width="1510.9" height="1510.9"/>
  <rect class="fil1" x="17552.78" y="9913.88" width="1510.9" height="1510.9"/>
  <rect class="fil1" x="16041.89" y="9913.88" width="1510.9" height="1510.9"/>
  <rect class="fil1" x="19063.68" y="8402.99" width="1510.9" height="1510.9"/>
  <rect class="fil1" x="22085.48" y="8402.99" width="1510.9" height="1510.9"/>
  <rect class="fil1" x="17552.78" y="8402.99" width="1510.9" height="1510.9"/>
  <rect class="fil1" x="16041.89" y="8402.99" width="1510.9" height="1510.9"/>
  <g id="_2179424633696">
   <rect class="fil3" x="19063.68" y="12935.66" width="1510.9" height="1510.9"/>
   <rect class="fil3" x="20574.58" y="12935.66" width="1510.9" height="1510.9"/>
   <rect class="fil3" x="22085.48" y="12935.66" width="1510.9" height="1510.9"/>
   <rect class="fil3" x="17552.78" y="12935.66" width="1510.9" height="1510.9"/>
   <rect class="fil3" x="16041.89" y="12935.66" width="1510.9" height="1510.9"/>
   <rect class="fil3" x="17552.78" y="11424.77" width="1510.9" height="1510.9"/>
   <rect class="fil3" x="19063.68" y="9913.88" width="1510.9" height="1510.9"/>
   <rect class="fil3" x="20574.58" y="8402.99" width="1510.9" height="1510.9"/>
   <rect class="fil3" x="19063.68" y="6892.09" width="1510.9" height="1510.9"/>
   <rect class="fil3" x="20574.58" y="6892.09" width="1510.9" height="1510.9"/>
   <rect class="fil3" x="22085.48" y="6892.09" width="1510.9" height="1510.9"/>
   <rect class="fil3" x="17552.78" y="6892.09" width="1510.9" height="1510.9"/>
   <rect class="fil3" x="16041.89" y="6892.09" width="1510.9" height="1510.9"/>
  </g>
  <rect class="fil1" x="9905.4" y="11424.77" width="1510.9" height="1510.9"/>
  <rect class="fil1" x="11416.3" y="11424.77" width="1510.9" height="1510.9"/>
  <rect class="fil1" x="12927.2" y="11424.77" width="1510.9" height="1510.9"/>
  <rect class="fil1" x="8394.51" y="11424.77" width="1510.9" height="1510.9"/>
  <rect class="fil1" x="12927.2" y="9913.88" width="1510.9" height="1510.9"/>
  <rect class="fil1" x="9905.4" y="8402.99" width="1510.9" height="1510.9"/>
  <rect class="fil1" x="11416.3" y="8402.99" width="1510.9" height="1510.9"/>
  <rect class="fil1" x="12927.2" y="8402.99" width="1510.9" height="1510.9"/>
  <rect class="fil1" x="8394.51" y="8402.99" width="1510.9" height="1510.9"/>
  <g id="_2178238041024">
   <rect class="fil3" x="9905.4" y="12935.66" width="1510.9" height="1510.9"/>
   <rect class="fil3" x="11416.3" y="12935.66" width="1510.9" height="1510.9"/>
   <rect class="fil3" x="12927.2" y="12935.66" width="1510.9" height="1510.9"/>
   <rect class="fil3" x="8394.51" y="12935.66" width="1510.9" height="1510.9"/>
   <rect class="fil3" x="6883.61" y="12935.66" width="1510.9" height="1510.9"/>
   <rect class="fil3" x="6883.61" y="11424.77" width="1510.9" height="1510.9"/>
   <rect class="fil3" x="9905.4" y="9913.88" width="1510.9" height="1510.9"/>
   <rect class="fil3" x="11416.3" y="9913.88" width="1510.9" height="1510.9"/>
   <rect class="fil3" x="8394.51" y="9913.88" width="1510.9" height="1510.9"/>
   <rect class="fil3" x="6883.61" y="9913.88" width="1510.9" height="1510.9"/>
   <rect class="fil3" x="6883.61" y="8402.99" width="1510.9" height="1510.9"/>
   <rect class="fil3" x="9905.4" y="6892.09" width="1510.9" height="1510.9"/>
   <rect class="fil3" x="11416.3" y="6892.09" width="1510.9" height="1510.9"/>
   <rect class="fil3" x="12927.2" y="6892.09" width="1510.9" height="1510.9"/>
   <rect class="fil3" x="8394.51" y="6892.09" width="1510.9" height="1510.9"/>
   <rect class="fil3" x="6883.61" y="6892.09" width="1510.9" height="1510.9"/>
  </g>
  <g>
   <path class="fil4" d="M25578.4 20597.95l0.01 0 -0.01 0zm-18760.72 -17888.61l3063.54 0 0.79 -0.01c605.37,0 1096.13,490.75 1096.13,1096.13 0,605.38 -490.76,1096.13 -1096.13,1096.13l-2694.88 0c-1257.03,0 -2285.57,1028.53 -2285.57,2285.61l0 2692.5 0.03 2.36c0,605.38 -490.76,1096.13 -1096.13,1096.13 -605.37,0 -1096.13,-490.75 -1096.13,-1096.13l0 -3064.37c0,-2259.57 1848.77,-4108.35 4108.35,-4108.35zm-3012.22 16792.49c605.37,0 1096.13,490.75 1096.13,1096.13l-0.03 2.36 0 2692.52c0,1257.07 1028.54,2285.6 2285.57,2285.6l2693.31 0 1.57 -0.02c605.37,0 1096.13,490.75 1096.13,1096.13 0,605.38 -490.76,1096.13 -1096.13,1096.13l-3064.33 0c-2259.58,0 -4108.35,-1848.78 -4108.35,-4108.36l0 -3064.36c0,-605.38 490.76,-1096.13 1096.13,-1096.13zm22869.08 0c605.37,0 1096.13,490.75 1096.13,1096.13l0 3064.36c0,2259.58 -1848.77,4108.36 -4108.36,4108.36l-3064.4 0c-605.37,0 -1096.13,-490.75 -1096.13,-1096.13 0,-605.38 490.76,-1096.13 1096.13,-1096.13l1.57 0.02 2693.38 0c1257.03,0 2285.57,-1028.53 2285.57,-2285.6l0 -2693.31 -0.02 -1.57 0 -0.01c0,-3.34 0.1,-6.66 0.13,-10 5.38,-600.77 493.97,-1086.12 1096,-1086.12zm1096.13 -9619.77c0,605.38 -490.76,1096.13 -1096.13,1096.13 -605.37,0 -1096.13,-490.75 -1096.13,-1096.13l0.02 -1.57 0 -2693.29c0,-1257.08 -1028.54,-2285.61 -2285.57,-2285.61l-2694.95 0c-605.37,0 -1096.13,-490.75 -1096.13,-1096.13 0,-605.38 490.76,-1096.13 1096.13,-1096.13l0.79 0.01 3063.61 0c2259.59,0 4108.36,1848.78 4108.36,4108.35l0 3064.37z"/>
  </g>
 </g>
</svg>
